<?xml version="1.0" encoding="utf-8"?>
<!-- Generator: Adobe Illustrator 22.0.1, SVG Export Plug-In . SVG Version: 6.00 Build 0)  -->
<svg version="1.1" xmlns="http://www.w3.org/2000/svg" xmlns:xlink="http://www.w3.org/1999/xlink" x="0px" y="0px"
	 viewBox="0 0 4497.5 1311.5" style="enable-background:new 0 0 4497.5 1311.5;" xml:space="preserve">
<style type="text/css">
	.st0{display:none;}
	.st1{display:inline;fill:#FFFFFF;}
	.st2{fill:#20AAAA;}
	.st3{fill:#F5F5F5;}
	.st4{fill:#202020;}
	.st5{display:inline;fill:#F5F5F5;}
</style>
<g id="Layer_2" class="st0">
	<rect class="st1" width="4497.5" height="1311.5"/>
</g>
<g id="Layer_1">
	<g>
		<path class="st2" d="M657.1,279.2c65.2,0,126.5,16.5,180,45.6l-180-180l-180,180C530.6,295.7,591.9,279.2,657.1,279.2z"/>
		<path class="st2" d="M989.1,836.8l180-180l-180-180c29.1,53.5,45.6,114.8,45.6,180S1018.2,783.3,989.1,836.8z"/>
		<path class="st2" d="M657.1,1034.3c-65.2,0-126.5-16.5-180-45.6l180,180l180-180C783.6,1017.8,722.3,1034.3,657.1,1034.3z"/>
		<path class="st2" d="M279.5,656.8c0-65.2,16.5-126.5,45.6-180l-180,180l180,180C296.1,783.3,279.5,722,279.5,656.8z"/>
	</g>
	<g>
		<circle class="st2" cx="657.1" cy="656.8" r="282.2"/>
		<circle class="st3" cx="657.1" cy="656.8" r="187.3"/>
		<circle class="st4" cx="677.7" cy="637.1" r="47.3"/>
	</g>
</g>
<g id="Layer_4">
	<g>
		<path class="st3" d="M1361.2,384.7h174c46.5,0,69.8,23.3,69.8,69.8v409.7c0,46.5-23.3,69.8-69.8,69.8h-174V384.7z M1544,854.4
			V464.1c0-11.8-1.8-19.3-5.3-22.5c-3.5-3.2-10.9-4.9-22.1-4.9h-94.5v445h94.5c11.2,0,18.5-1.6,22.1-4.9
			C1542.2,873.7,1544,866.2,1544,854.4z"/>
		<path class="st3" d="M1813.3,505.6h18.5v53h-26.5c-37.1,0-55.6,22.1-55.6,66.2v309.1h-60.9V505.6h60.9v49.4
			c4.7-13.5,12.5-25.2,23.4-34.9C1784,510.5,1797.4,505.6,1813.3,505.6z"/>
		<path class="st3" d="M2029.7,505.6h60.9v428.3h-60.9v-29.1c-6.5,19.4-22.7,29.1-48.6,29.1h-35.3c-46.5,0-69.8-23.2-69.8-69.8
			V505.6h60.9v348.8c0,11.8,1.8,19.3,5.3,22.5c3.5,3.2,10.9,4.9,22.1,4.9h35.3c10.6,0,18.2-2.3,23-7.1c4.7-4.7,7.1-12.9,7.1-24.7
			V505.6z"/>
		<path class="st3" d="M2279.5,505.6h35.3c46.5,0,69.8,23.3,69.8,69.8v358.5h-60.9V585.1c0-11.2-1.6-18.5-4.9-22.1
			c-3.2-3.5-10.7-5.3-22.5-5.3H2261c-10.6,0-18.3,2.4-23,7.1c-4.7,4.7-7.1,13-7.1,24.7v344.4h-60.9V505.6h60.9v29.1
			C2237.5,515.3,2253.6,505.6,2279.5,505.6z"/>
		<path class="st3" d="M2464.1,933.9V343.2h60.9v590.7H2464.1z M2706.9,505.6l-99.8,202.2l99.8,226.1h-65.3l-97.1-226.1l97.1-202.2
			H2706.9z"/>
		<path class="st3" d="M2820.8,505.6h81.2c46.5,0,69.8,23.3,69.8,69.8v165.1H2812v113.9c0,11.8,1.8,19.3,5.3,22.5
			c3.5,3.2,10.9,4.9,22.1,4.9h41.5c11.8,0,19.3-1.6,22.5-4.9c3.2-3.2,4.9-10.7,4.9-22.5v-38.9h60.9v48.6c0,46.5-23.3,69.8-69.8,69.8
			h-78.6c-46.5,0-69.8-23.2-69.8-69.8V575.4C2751.1,528.9,2774.3,505.6,2820.8,505.6z M2812,688.4h98.9V585.1
			c0-11.2-1.8-18.5-5.3-22.1c-3.5-3.5-10.9-5.3-22.1-5.3h-44.2c-11.2,0-18.5,1.8-22.1,5.3c-3.5,3.5-5.3,10.9-5.3,22.1V688.4z"/>
		<path class="st3" d="M3152,505.6h35.3c46.5,0,69.8,23.3,69.8,69.8v358.5h-60.9V585.1c0-11.2-1.6-18.5-4.9-22.1
			c-3.2-3.5-10.7-5.3-22.5-5.3h-35.3c-10.6,0-18.3,2.4-23,7.1c-4.7,4.7-7.1,13-7.1,24.7v344.4h-60.9V505.6h60.9v29.1
			C3109.9,515.3,3126,505.6,3152,505.6z"/>
		<path class="st3" d="M3559.9,436.8h-153.6V631h118.3v52.1h-118.3v250.8h-60.9V384.7h214.6V436.8z"/>
		<path class="st3" d="M3753.3,505.6h60.9v428.3h-60.9v-29.1c-6.5,19.4-22.7,29.1-48.6,29.1h-35.3c-46.5,0-69.8-23.2-69.8-69.8
			V575.4c0-46.5,23.2-69.8,69.8-69.8h35.3c25.9,0,42.1,9.7,48.6,29.1V505.6z M3687.9,881.8h35.3c10.6,0,18.2-2.3,23-7.1
			c4.7-4.7,7.1-12.9,7.1-24.7V589.5c0-11.8-2.4-20-7.1-24.7c-4.7-4.7-12.4-7.1-23-7.1h-35.3c-11.8,0-19.3,1.8-22.5,5.3
			c-3.2,3.5-4.9,10.9-4.9,22.1v269.3c0,11.8,1.6,19.3,4.9,22.5C3668.7,880.2,3676.2,881.8,3687.9,881.8z"/>
		<path class="st3" d="M3954.6,933.9h-60.9V343.2h60.9V933.9z"/>
		<path class="st3" d="M4095,933.9h-60.9V343.2h60.9V933.9z"/>
	</g>
</g>
<g id="Layer_3" class="st0">
	<circle class="st5" cx="4304" cy="657.3" r="187.3"/>
</g>
</svg>
