<svg id="Layer_1" data-name="Layer 1" xmlns="http://www.w3.org/2000/svg" viewBox="0 0 1024 1024"><defs><style>.cls-1{fill:#20aaaa;}.cls-2{fill:#f5f5f5;}.cls-3{fill:#202020;}</style></defs><title>DF_1.0</title><path class="cls-1" d="M512,134.43A375.89,375.89,0,0,1,692,180L512,0,332,180A375.89,375.89,0,0,1,512,134.43Z" transform="translate(0 0)"/><path class="cls-1" d="M844,692l180-180L844,332A378.18,378.18,0,0,1,844,692Z" transform="translate(0 0)"/><path class="cls-1" d="M512,889.57A375.89,375.89,0,0,1,332,844l180,180L692,844A375.89,375.89,0,0,1,512,889.57Z" transform="translate(0 0)"/><path class="cls-1" d="M134.43,512A375.89,375.89,0,0,1,180,332L0,512,180,692A375.89,375.89,0,0,1,134.43,512Z" transform="translate(0 0)"/><circle class="cls-1" cx="512" cy="512" r="282.21"/><circle class="cls-2" cx="512" cy="512" r="187.32"/><circle class="cls-3" cx="532.54" cy="492.35" r="47.33"/></svg>